<svg width="268" height="72" viewBox="0 0 268 72" fill="none" xmlns="http://www.w3.org/2000/svg">
<path d="M8.96248 10.7453C7.68883 10.7453 6.41519 10.6942 5.1875 10.5955V34.3117H28.7467V6.80566C23.0743 9.34924 16.1514 10.7453 8.96248 10.7453ZM20.3498 26.0783L16.1382 27.774L10.9747 25.9898V22.234L16.1382 24.4643L20.3498 22.6085V26.0783ZM22.7625 24.9104C22.7625 25.1453 22.5852 25.353 22.3587 25.4586C22.5097 26.6333 22.7625 27.6753 23.1137 28.5368C22.7362 28.6934 22.3095 28.6934 21.804 28.6151L21.7022 27.5459L21.5775 28.5912H21.1737C21.4265 27.4437 21.653 26.3745 21.7777 25.4586C21.5512 25.3803 21.374 25.1453 21.374 24.9104C21.374 24.6482 21.5742 24.4132 21.827 24.3349V21.3078L16.1415 23.7595L8.2403 20.3408L16.1415 16.6361L24.0427 20.3408L22.3325 21.0729V24.3349C22.5852 24.4405 22.7592 24.6482 22.7592 24.9104H22.7625Z" fill="#DBBB42"/>
<path d="M35.7422 54.0655C36.0606 53.7659 36.3626 53.48 36.6974 53.2246C36.3626 53.48 36.0606 53.7693 35.7422 54.0655Z" fill="#DBBB42"/>
<path d="M31.4017 37.0508V65.9768C44.7684 62.0609 53.2539 52.4859 54.7672 39.4445C54.8624 38.6716 54.9116 37.8748 54.9346 37.0508H31.3984H31.4017ZM38.1835 51.0762C37.8848 50.8038 37.596 50.5995 37.3202 50.4906C37.1922 49.6189 38.8499 50.8787 38.1835 51.0762ZM35.7315 54.0659L36.8836 52.2816C37.0117 52.3327 37.1397 52.302 37.1791 52.2135C37.2217 52.1182 37.1463 51.9888 37.0117 51.9241C36.8771 51.8594 36.7326 51.8832 36.69 51.982C36.6571 52.0603 36.6965 52.159 36.7819 52.2237L35.656 53.991C35.9777 52.9899 36.3125 52.1624 36.1877 51.3895C36.6112 51.2669 36.9788 51.0422 37.2644 50.671C37.5336 50.78 37.7831 50.957 38.0161 51.192C37.8422 51.6074 37.8093 52.0535 37.9373 52.5404C37.4482 52.7072 37.0543 52.9422 36.6998 53.2112C39.4244 52.0671 43.8788 52.0467 48.1101 53.0784C42.6905 52.3054 37.5894 52.9456 35.7315 54.0625V54.0659ZM47.4798 44.9982C46.9251 45.4 46.1537 45.5941 45.2411 45.6554C45.8746 45.7779 46.4261 45.7882 46.8824 45.6724C45.1951 47.5418 43.8723 47.4532 42.1259 47.5179C42.7398 47.6678 43.4127 47.7937 44.1316 47.9061C42.4115 48.9957 41.3414 48.6757 40.071 49.0809C40.7604 49.0911 41.3283 49.3158 41.7583 49.7823C40.8129 49.4418 39.9726 49.435 39.2602 49.8232C40.0349 49.8095 40.7308 50.1194 41.1247 50.8924C40.3927 50.1943 39.4211 49.9832 38.3805 50.4259L38.2492 50.3067C41.9881 44.9505 45.9469 45.5532 47.5882 42.8598C45.8714 45.24 41.2561 45.2536 37.8717 50.0854L37.7929 50.0683C37.9472 49.1047 38.0293 48.2773 37.3629 47.2353C37.8422 47.6473 38.154 48.1717 38.2426 48.8391C38.4068 47.9299 38.3247 47.048 38.0621 46.1934C38.4626 46.7075 38.6858 47.426 38.6595 48.3011C38.9188 47.5316 38.909 46.8233 39.4966 45.8529C39.4966 46.4794 39.4047 46.9629 39.3883 47.4907C39.9758 45.4783 40.3271 45.24 41.4497 44.5317C41.0624 45.2127 40.7308 45.9244 40.4452 46.6633C40.9245 45.846 41.5088 45.0254 42.1686 44.1946C42.9991 43.8166 43.9182 43.4693 44.9227 43.1424L44.2793 44.5487C44.7126 44.0822 45.0409 43.5715 45.2674 43.0164C46.6789 42.3831 47.6571 41.5557 48.0018 40.4456C48.8749 41.4671 48.9242 43.4932 47.4766 44.9982H47.4798Z" fill="#DBBB42"/>
<path d="M15.9906 50.3181C16.6143 50.1274 17.3627 49.9844 18.2326 49.9503V47.9277H15.6328C15.6591 48.3908 15.7444 49.317 15.9939 50.3215L15.9906 50.3181Z" fill="#DBBB42"/>
<path d="M18.1915 41.4879C18.1192 41.5253 16.8915 42.1723 16.1562 44.1881C16.7044 44.3209 17.3872 44.423 18.2308 44.4503V41.2461C18.1816 41.2461 18.1324 41.2529 18.0831 41.2597L18.1915 41.4913V41.4879Z" fill="#DBBB42"/>
<path d="M18.2308 53.8397V50.5674C17.4266 50.6014 16.734 50.7376 16.1562 50.9147C16.5305 52.1133 17.164 53.3051 18.2308 53.8397Z" fill="#DBBB42"/>
<path d="M21.3787 44.0552C22.242 43.7351 22.5801 43.3129 22.6852 43.1528C21.8678 42.2369 20.801 41.5899 19.6094 41.3447C20.128 41.7874 20.8732 42.6216 21.3787 44.0552Z" fill="#DBBB42"/>
<path d="M15.625 47.3042H18.2347V45.0711C17.3188 45.0438 16.5737 44.9315 15.973 44.7783C15.7793 45.4762 15.648 46.3102 15.625 47.3008V47.3042Z" fill="#DBBB42"/>
<path d="M14.1953 51.8639C14.9536 52.7935 15.9548 53.4813 17.0873 53.7979C16.3487 53.0965 15.8694 52.1056 15.5609 51.1182C14.865 51.3974 14.4087 51.7038 14.1953 51.8639Z" fill="#DBBB42"/>
<path d="M17.2766 41.3857C16.0915 41.6718 15.0444 42.3562 14.25 43.3062C14.4108 43.4526 14.808 43.7591 15.5663 44.0179C16.0554 42.649 16.7612 41.8318 17.2733 41.3857H17.2766Z" fill="#DBBB42"/>
<path d="M15.3978 44.6105C14.5903 44.3347 14.1241 44.0011 13.8944 43.7969C13.2214 44.7841 12.8013 45.9926 12.7422 47.3032H15.0236C15.0465 46.2513 15.1877 45.3594 15.3945 44.6105H15.3978Z" fill="#DBBB42"/>
<path d="M15.0301 47.9238H12.7422C12.798 49.2072 13.2018 50.3919 13.8517 51.3689C14.1012 51.1782 14.6264 50.8276 15.4142 50.5178C15.1385 49.4217 15.0564 48.414 15.0301 47.9238Z" fill="#DBBB42"/>
<path d="M18.8281 41.2432V41.2745L18.8435 41.2432C18.8435 41.2432 18.8343 41.2432 18.8281 41.2432Z" fill="#DBBB42"/>
<path d="M18.8281 41.5469V44.4575C19.6258 44.4473 20.2626 44.3587 20.7747 44.2362C20.1444 42.4864 19.14 41.7443 18.8281 41.5503V41.5469Z" fill="#DBBB42"/>
<path d="M19.7734 53.8455C20.9322 53.5663 21.9596 52.9091 22.7475 51.9966C22.6556 51.8978 22.2124 51.4586 21.3622 51.0908C21.0471 52.1089 20.5481 53.1373 19.7734 53.8455Z" fill="#DBBB42"/>
<path d="M21.5469 44.6441C21.7504 45.3864 21.885 46.2684 21.908 47.3035H24.3272C24.2681 45.921 23.802 44.6544 23.0634 43.6396C22.8402 43.9223 22.3905 44.3343 21.5469 44.6441Z" fill="#DBBB42"/>
<path d="M5.21094 37.0508C5.23392 37.8748 5.28316 38.6716 5.35537 39.4445C6.89491 52.4859 15.3804 62.0609 28.7471 65.9768V37.0508H5.21094ZM18.5317 54.6141C14.9996 54.6141 12.1241 51.4746 12.1241 47.6133C12.1241 43.7519 14.9963 40.6125 18.5317 40.6125C22.067 40.6125 24.9393 43.7519 24.9393 47.6133C24.9393 51.4746 22.0637 54.6141 18.5317 54.6141Z" fill="#DBBB42"/>
<path d="M21.5234 50.4838C22.4065 50.8548 22.9218 51.3076 23.1188 51.5084C23.8245 50.5076 24.2677 49.2685 24.3268 47.9238H21.9009C21.8747 48.4106 21.7926 49.4012 21.5234 50.4838Z" fill="#DBBB42"/>
<path d="M20.9618 44.8198C20.3972 44.9628 19.6947 45.0615 18.8281 45.0717V47.2981H21.2999C21.2769 46.3279 21.1489 45.5075 20.9585 44.8164L20.9618 44.8198Z" fill="#DBBB42"/>
<path d="M18.8281 50.5635V53.771C19.826 53.199 20.4202 52.0379 20.778 50.8767C20.2462 50.7099 19.5963 50.5873 18.8281 50.5635Z" fill="#DBBB42"/>
<path d="M21.3291 47.9238H18.8672V49.943C19.6977 49.9635 20.4002 50.0929 20.9812 50.2767C21.2208 49.2893 21.3029 48.3835 21.3291 47.9238Z" fill="#DBBB42"/>
<path d="M51.1826 10.7215C43.9937 10.7215 37.0708 9.34924 31.3984 6.80566V34.3117H54.9576V10.5955C53.7069 10.6942 52.4562 10.7215 51.1826 10.7215ZM43.3897 21.0865C44.2005 18.3522 46.2095 16.3943 48.481 15.8767V21.8458C46.5738 21.9752 44.6634 23.2044 43.3897 25.3394V21.0865ZM37.875 15.8801C40.1432 16.3977 42.1555 18.3556 42.9663 21.0899V25.3428C41.6926 23.2044 39.7854 21.9786 37.875 21.8492V15.8801ZM36.2599 25.1453V17.1605C36.4864 16.9698 37.0642 16.7961 37.4811 16.7995L37.4712 22.3464C40.0809 22.4996 42.0439 24.0591 43.16 26.7525C40.8228 24.7537 38.3871 24.4234 36.2567 25.1487L36.2599 25.1453ZM50.0994 25.1453C47.969 24.42 45.5333 24.7503 43.1961 26.7491C44.3121 24.0523 46.2751 22.4928 48.8848 22.343L48.875 16.7961C49.2918 16.7961 49.8729 16.9664 50.0961 17.157V25.1419L50.0994 25.1453Z" fill="#DBBB42"/>
<path d="M30.1801 0.0340423L30.1211 0L30.062 0.0340423C21.885 5.09056 9.26347 6.34703 0 4.33464V35.0551C0 36.7508 0.216662 38.4091 0.216662 40.0912C0.216662 63.5418 28.1515 71.4654 30.0653 71.983L30.1243 72L30.1834 71.983C32.0972 71.4688 60.032 63.5418 60.032 40.0912C60.032 38.4091 60.2487 36.7508 60.2487 35.0551V4.33464C50.9852 6.34703 38.3636 5.09056 30.1867 0.0340423H30.1801ZM57.5996 35.0585C57.5996 36.5806 57.406 38.1912 57.406 39.7711C57.406 59.1833 31.3192 68.7482 30.1211 69.1806C28.9196 68.7516 2.83616 59.1833 2.83616 39.7711C2.83616 38.1912 2.64248 36.5806 2.64248 35.0585V7.57966C4.71051 7.85547 6.85078 7.97805 9.05996 7.97805C16.8988 7.97805 24.475 6.24147 30.1178 3.1667C35.7605 6.24147 43.3367 7.97805 51.1756 7.97805C53.388 7.97805 55.5283 7.85206 57.593 7.57966V35.0585H57.5996Z" fill="#DBBB42"/>
<path d="M260.268 45C258.809 44.9943 257.553 44.6351 256.5 43.9222C255.454 43.2093 254.648 42.1768 254.082 40.8246C253.522 39.4724 253.244 37.8458 253.25 35.9448C253.25 34.0495 253.53 32.4342 254.09 31.099C254.656 29.7638 255.462 28.7482 256.509 28.0523C257.561 27.3508 258.814 27 260.268 27C261.722 27 262.973 27.3508 264.02 28.0523C265.072 28.7539 265.881 29.7723 266.447 31.1075C267.012 32.4371 267.293 34.0495 267.287 35.9448C267.287 37.8515 267.004 39.4809 266.438 40.8331C265.878 42.1853 265.075 43.2178 264.028 43.9307C262.981 44.6436 261.728 45 260.268 45ZM260.268 41.9533C261.264 41.9533 262.059 41.4526 262.653 40.4512C263.247 39.4498 263.541 37.9477 263.536 35.9448C263.536 34.6266 263.4 33.529 263.128 32.6521C262.863 31.7751 262.483 31.116 261.991 30.6747C261.505 30.2334 260.93 30.0127 260.268 30.0127C259.278 30.0127 258.486 30.5078 257.892 31.4979C257.298 32.488 256.998 33.9703 256.993 35.9448C256.993 37.2801 257.126 38.3946 257.392 39.2885C257.663 40.1768 258.045 40.8444 258.537 41.2914C259.029 41.7327 259.607 41.9533 260.268 41.9533Z" fill="#DBBB42"/>
<path d="M244.356 44.8557C243.462 44.8501 242.599 44.7001 241.768 44.4059C240.942 44.1117 240.2 43.6337 239.544 42.9717C238.888 42.3098 238.367 41.4328 237.983 40.3409C237.604 39.2489 237.414 37.9081 237.414 36.3182C237.42 34.8586 237.587 33.5545 237.915 32.4059C238.249 31.2518 238.724 30.273 239.341 29.4696C239.963 28.6662 240.707 28.0552 241.572 27.6365C242.438 27.2122 243.408 27 244.483 27C245.643 27 246.667 27.2263 247.556 27.6789C248.444 28.1259 249.157 28.7341 249.694 29.5035C250.237 30.273 250.565 31.1358 250.679 32.0919H247.055C246.913 31.4866 246.616 31.0113 246.164 30.6662C245.711 30.3211 245.151 30.1485 244.483 30.1485C243.352 30.1485 242.492 30.6407 241.903 31.6252C241.321 32.6096 241.024 33.9477 241.012 35.6393H241.131C241.391 35.1245 241.742 34.686 242.184 34.3239C242.63 33.9561 243.137 33.6761 243.703 33.4837C244.274 33.2857 244.877 33.1867 245.51 33.1867C246.54 33.1867 247.457 33.43 248.26 33.9165C249.063 34.3975 249.697 35.0594 250.161 35.9024C250.625 36.7454 250.857 37.71 250.857 38.7963C250.857 39.9731 250.582 41.0198 250.034 41.9363C249.49 42.8529 248.729 43.5714 247.751 44.0919C246.778 44.6068 245.646 44.8614 244.356 44.8557ZM244.339 41.9703C244.905 41.9703 245.411 41.8345 245.858 41.5629C246.305 41.2914 246.656 40.9236 246.911 40.4597C247.165 39.9958 247.292 39.4752 247.292 38.8982C247.292 38.3211 247.165 37.8034 246.911 37.3451C246.662 36.8868 246.316 36.5219 245.875 36.2504C245.434 35.9788 244.93 35.843 244.365 35.843C243.94 35.843 243.547 35.9222 243.185 36.0806C242.829 36.239 242.514 36.4597 242.243 36.7426C241.977 37.0255 241.768 37.3536 241.615 37.727C241.462 38.0948 241.386 38.488 241.386 38.9066C241.386 39.4668 241.513 39.9788 241.768 40.4427C242.028 40.9066 242.379 41.2772 242.82 41.5545C243.267 41.8317 243.773 41.9703 244.339 41.9703Z" fill="#DBBB42"/>
<path d="M228.344 44.8557C227.077 44.8557 225.948 44.6379 224.958 44.2023C223.973 43.761 223.196 43.1556 222.624 42.3861C222.058 41.611 221.767 40.7171 221.75 39.7044H225.45C225.473 40.1287 225.611 40.5021 225.866 40.8246C226.126 41.1414 226.471 41.3876 226.901 41.5629C227.331 41.7383 227.815 41.826 228.353 41.826C228.913 41.826 229.408 41.727 229.838 41.529C230.268 41.331 230.604 41.0566 230.848 40.7058C231.091 40.355 231.213 39.9505 231.213 39.4922C231.213 39.0283 231.082 38.6181 230.822 38.2617C230.568 37.8996 230.2 37.6167 229.719 37.413C229.244 37.2093 228.678 37.1075 228.022 37.1075H226.401V34.4088H228.022C228.576 34.4088 229.065 34.3126 229.49 34.1202C229.92 33.9279 230.254 33.662 230.491 33.3225C230.729 32.9774 230.848 32.5757 230.848 32.1174C230.848 31.6818 230.743 31.2999 230.534 30.9717C230.33 30.6379 230.041 30.3777 229.668 30.1909C229.3 30.0042 228.87 29.9109 228.378 29.9109C227.88 29.9109 227.425 30.0014 227.012 30.1825C226.599 30.3578 226.268 30.6096 226.019 30.9378C225.77 31.2659 225.637 31.6506 225.62 32.0919H222.098C222.115 31.0905 222.401 30.2079 222.955 29.4441C223.51 28.6803 224.256 28.0835 225.196 27.6535C226.14 27.2178 227.207 27 228.395 27C229.594 27 230.644 27.2178 231.543 27.6535C232.443 28.0891 233.142 28.6775 233.64 29.4187C234.143 30.1542 234.392 30.9802 234.386 31.8967C234.392 32.8699 234.089 33.6818 233.478 34.3324C232.873 34.983 232.084 35.396 231.111 35.5714V35.7072C232.389 35.8713 233.362 36.3154 234.03 37.0396C234.703 37.7581 235.037 38.6577 235.031 39.7383C235.037 40.7284 234.751 41.6082 234.174 42.3777C233.603 43.1471 232.814 43.7525 231.807 44.1938C230.799 44.6351 229.645 44.8557 228.344 44.8557Z" fill="#DBBB42"/>
<path d="M218.991 27.2373V44.6178H215.817L208.255 33.6786H208.128V44.6178H204.453V27.2373H207.678L215.18 38.168H215.333V27.2373H218.991Z" fill="#DBBB42"/>
<path d="M201.73 35.9279C201.73 37.8232 201.371 39.4356 200.653 40.7652C199.94 42.0948 198.967 43.1103 197.733 43.8119C196.505 44.5078 195.125 44.8557 193.592 44.8557C192.047 44.8557 190.661 44.5049 189.433 43.8034C188.206 43.1018 187.235 42.0863 186.522 40.7567C185.81 39.4272 185.453 37.8175 185.453 35.9279C185.453 34.0325 185.81 32.4201 186.522 31.0905C187.235 29.761 188.206 28.7482 189.433 28.0523C190.661 27.3508 192.047 27 193.592 27C195.125 27 196.505 27.3508 197.733 28.0523C198.967 28.7482 199.94 29.761 200.653 31.0905C201.371 32.4201 201.73 34.0325 201.73 35.9279ZM198.005 35.9279C198.005 34.7001 197.821 33.6648 197.453 32.8218C197.091 31.9788 196.579 31.3395 195.917 30.9038C195.255 30.4682 194.48 30.2504 193.592 30.2504C192.703 30.2504 191.928 30.4682 191.266 30.9038C190.604 31.3395 190.09 31.9788 189.722 32.8218C189.36 33.6648 189.179 34.7001 189.179 35.9279C189.179 37.1556 189.36 38.1909 189.722 39.0339C190.09 39.8769 190.604 40.5163 191.266 40.9519C191.928 41.3876 192.703 41.6054 193.592 41.6054C194.48 41.6054 195.255 41.3876 195.917 40.9519C196.579 40.5163 197.091 39.8769 197.453 39.0339C197.821 38.1909 198.005 37.1556 198.005 35.9279Z" fill="#DBBB42"/>
<path d="M182.737 27.2373V44.6178H179.062V27.2373H182.737Z" fill="#DBBB42"/>
<path d="M162.438 30.267V27.2373H176.712V30.267H171.391V44.6178H167.759V30.267H162.438Z" fill="#DBBB42"/>
<path d="M150.336 44.6178H146.398L152.398 27.2373H157.134L163.125 44.6178H159.188L154.834 31.209H154.698L150.336 44.6178ZM150.09 37.7861H159.391V40.6546H150.09V37.7861Z" fill="#DBBB42"/>
<path d="M145.047 33.3225H141.33C141.262 32.8416 141.123 32.4144 140.914 32.041C140.705 31.662 140.436 31.3395 140.108 31.0735C139.78 30.8076 139.401 30.604 138.971 30.4625C138.546 30.3211 138.085 30.2504 137.587 30.2504C136.688 30.2504 135.904 30.4738 135.237 30.9208C134.569 31.3621 134.051 32.0071 133.683 32.8557C133.316 33.6987 133.132 34.7228 133.132 35.9279C133.132 37.1669 133.316 38.2079 133.683 39.0509C134.057 39.8939 134.577 40.5304 135.245 40.9604C135.913 41.3904 136.685 41.6054 137.562 41.6054C138.054 41.6054 138.51 41.5403 138.928 41.4102C139.353 41.2801 139.729 41.0905 140.057 40.8416C140.385 40.587 140.657 40.2786 140.872 39.9165C141.092 39.5545 141.245 39.1414 141.33 38.6775L145.047 38.6945C144.951 39.4922 144.71 40.2617 144.326 41.0028C143.947 41.7383 143.435 42.3975 142.79 42.9802C142.15 43.5573 141.386 44.0156 140.498 44.355C139.616 44.6888 138.617 44.8557 137.502 44.8557C135.952 44.8557 134.566 44.5049 133.344 43.8034C132.128 43.1018 131.166 42.0863 130.459 40.7567C129.757 39.4272 129.406 37.8175 129.406 35.9279C129.406 34.0325 129.763 32.4201 130.476 31.0905C131.188 29.761 132.156 28.7482 133.378 28.0523C134.6 27.3508 135.975 27 137.502 27C138.51 27 139.443 27.1414 140.303 27.4243C141.169 27.7072 141.935 28.1202 142.603 28.6634C143.27 29.2008 143.814 29.86 144.232 30.6407C144.657 31.4215 144.928 32.3154 145.047 33.3225Z" fill="#DBBB42"/>
<path d="M123.001 27.2373H126.676V38.5244C126.676 39.7918 126.373 40.9007 125.768 41.8512C125.168 42.8017 124.328 43.5428 123.247 44.0746C122.167 44.6008 120.908 44.8639 119.471 44.8639C118.028 44.8639 116.766 44.6008 115.686 44.0746C114.605 43.5428 113.765 42.8017 113.165 41.8512C112.565 40.9007 112.266 39.7918 112.266 38.5244V27.2373H115.94V38.2104C115.94 38.8724 116.085 39.4608 116.373 39.9756C116.667 40.4905 117.08 40.895 117.612 41.1892C118.144 41.4834 118.764 41.6305 119.471 41.6305C120.184 41.6305 120.803 41.4834 121.329 41.1892C121.861 40.895 122.271 40.4905 122.56 39.9756C122.854 39.4608 123.001 38.8724 123.001 38.2104V27.2373Z" fill="#DBBB42"/>
<path d="M101.044 44.6178H94.8828V27.2373H101.095C102.843 27.2373 104.348 27.5853 105.61 28.2812C106.872 28.9714 107.842 29.9643 108.521 31.2599C109.205 32.5555 109.548 34.1058 109.548 35.9106C109.548 37.721 109.205 39.2769 108.521 40.5782C107.842 41.8794 106.866 42.878 105.593 43.5739C104.326 44.2698 102.809 44.6178 101.044 44.6178ZM98.5575 41.4693H100.891C101.978 41.4693 102.891 41.2769 103.632 40.8922C104.379 40.5018 104.939 39.8993 105.313 39.0845C105.692 38.2642 105.881 37.2062 105.881 35.9106C105.881 34.6263 105.692 33.5768 105.313 32.7621C104.939 31.9473 104.382 31.3476 103.641 30.9629C102.9 30.5782 101.986 30.3858 100.9 30.3858H98.5575V41.4693Z" fill="#DBBB42"/>
<path d="M80.25 44.6178V27.2373H91.9615V30.267H83.9247V34.4084H91.3589V37.4382H83.9247V41.5881H91.9954V44.6178H80.25Z" fill="#DBBB42"/>
</svg>
